<svg width="76" height="77" viewBox="0 0 76 77" fill="none" xmlns="http://www.w3.org/2000/svg">
<path d="M58.7241 42.1936V71.6323C58.7241 73.5102 57.7802 75.2199 56.1997 76.2018C54.6192 77.1852 52.6885 77.2647 51.0352 76.4138L45.801 73.7209L38.3807 69.9048C38.3006 69.8627 38.213 69.8356 38.1254 69.8236C37.9547 69.7965 37.7767 69.8251 37.6194 69.9048L30.0819 73.7824L24.9648 76.4137C24.2035 76.8045 23.3842 77.0001 22.5665 77.0001C21.6077 77.0001 20.6536 76.7324 19.8002 76.2016C18.2196 75.2197 17.2759 73.5102 17.2759 71.6322V42.1936C17.2759 40.9487 18.2732 39.9382 19.502 39.9382H45.801C51.8262 39.9382 56.4981 39.9382 56.4981 39.9382C57.7282 39.9382 58.7241 40.9487 58.7241 42.1936Z" fill="#FF873C"/>
<path d="M58.724 42.1936V71.6323C58.724 73.5102 57.7801 75.2199 56.1997 76.2018C54.6191 77.1852 52.6884 77.2647 51.0351 76.4138L45.8009 73.7209L38.3807 69.9048C38.3005 69.8627 38.2129 69.8356 38.1254 69.8236V39.9382H45.8009C51.8261 39.9382 56.4981 39.9382 56.4981 39.9382C57.7282 39.9382 58.724 40.9487 58.724 42.1936Z" fill="#FA732D"/>
<path d="M45.801 39.9382V73.7208L38.3808 69.9046C38.3006 69.8625 38.213 69.8354 38.1254 69.8234C37.9547 69.7963 37.7768 69.8249 37.6194 69.9046L30.0819 73.7823V39.9382H45.801Z" fill="#FF2121"/>
<path d="M45.8009 39.9382V73.7208L38.3807 69.9046C38.3005 69.8625 38.2129 69.8354 38.1254 69.8234V39.9382H45.8009Z" fill="#CF0404"/>
<path d="M64.0846 26.4284C64.0846 40.959 52.4526 52.7877 38.1255 52.8569H38.0009C23.6174 52.8569 11.9156 41.0011 11.9156 26.4284C11.9156 11.8557 23.6174 0 38.0009 0H38.1255C52.4526 0.0691797 64.0846 11.8979 64.0846 26.4284Z" fill="#D25F2D"/>
<path d="M64.0847 26.4284C64.0847 40.959 52.4526 52.7877 38.1256 52.8569V0C52.4526 0.0691797 64.0847 11.8979 64.0847 26.4284Z" fill="#BF5327"/>
<path d="M55.7873 26.4284C55.7873 36.322 47.8757 44.3796 38.1256 44.4473C38.084 44.4488 38.0424 44.4488 38.0009 44.4488C28.1927 44.4488 20.213 36.3641 20.213 26.4284C20.213 16.4912 28.1927 8.40649 38.0009 8.40649C38.0424 8.40649 38.084 8.40649 38.1256 8.408C47.8758 8.47567 55.7873 16.5333 55.7873 26.4284Z" fill="#BF5327"/>
<path d="M55.7871 26.4285C55.7871 36.3221 47.8755 44.3797 38.1254 44.4474V8.40808C47.8756 8.47576 55.7871 16.5334 55.7871 26.4285Z" fill="#8E2E29"/>
</svg>
