<svg width="20" height="32" viewBox="0 0 20 32" fill="none" xmlns="http://www.w3.org/2000/svg">
<g clip-path="url(#clip0)">
<path d="M14.6838 15.6065C13.9676 15.0065 13.4644 14.2194 13.2386 13.3484C12.916 12.1097 13.6257 10.8387 14.8967 10.3742C16.4193 9.81938 16.8967 8.02583 15.8257 6.87099L9.4257 2.47955e-05V4.98067C9.4257 5.83873 8.89022 6.62583 8.04506 6.98712L6.19345 7.78067C5.15474 8.22583 4.52248 9.23228 4.6128 10.2968L4.72248 11.5807C4.85151 13.0452 4.23861 14.4968 3.03215 15.4452C1.46441 16.671 0.367638 18.3936 0.00634766 20.3549C0.00634766 20.3678 0.00634766 20.3807 0.00634766 20.3936C0.00634766 20.3936 0.00634766 20.3936 0.00634766 20.4C0.00634766 20.4065 0.00634766 20.4129 0.00634766 20.4129C0.00634766 20.4258 0.00634766 20.4387 0.00634766 20.4581C0.00634766 20.4645 0.00634766 20.471 0.00634766 20.4774C0.00634766 20.4903 0.00634766 20.5097 0.00634766 20.5226C0.00634766 20.5226 0.00634766 20.5226 0.00634766 20.5291V20.5355C0.00634766 20.542 0.00634766 20.5484 0.00634766 20.5549C0.00634766 20.5807 0.00634766 20.6 0.00634766 20.6258C0.00634766 20.6323 0.00634766 20.6452 0.00634766 20.6516C0.00634766 20.6581 0.00634766 20.6581 0.00634766 20.6645C0.00634766 20.6839 0.00634766 20.6968 0.00634766 20.7162C0.00634766 20.7355 0.00634766 20.7613 0.00634766 20.7807C0.00634766 20.8 0.00634766 20.8129 0.00634766 20.8323C0.00634766 20.8387 0.00634766 20.8387 0.00634766 20.8452C0.00634766 20.8516 0.00634766 20.8581 0.00634766 20.8581C0.00634766 20.8774 0.00634766 20.8968 0.00634766 20.9162C0.00634766 20.9291 0.00634766 20.942 0.00634766 20.9484C0.00634766 20.9678 0.00634766 20.9936 0.00634766 21.0129C0.00634766 21.0194 0.00634766 21.0258 0.00634766 21.0258C0.00634766 21.0387 0.00634766 21.0581 0.00634766 21.071C0.00634766 21.0903 0.00634766 21.1032 0.00634766 21.1226C0.00634766 21.1291 0.00634766 21.1355 0.00634766 21.142C0.00634766 21.1549 0.00634766 21.1613 0.00634766 21.1742C0.00634766 21.1871 0.00634766 21.2065 0.00634766 21.2194C0.00634766 21.2323 0.00634766 21.2452 0.00634766 21.2581C0.00634766 21.2774 0.00634766 21.2968 0.00634766 21.3097V21.3162C0.00634766 21.3226 0.00634766 21.3226 0.00634766 21.3291C0.00634766 21.3936 0.0127993 21.4645 0.00634766 21.5291C0.00634766 21.542 0.00634766 21.5549 0.00634766 21.5742C0.00634766 21.5807 0.00634766 21.5807 0.00634766 21.5871C0.00634766 21.5871 0.00634766 21.5871 0.00634766 21.5936C0.00634766 21.6129 0.00634766 21.6323 0.00634766 21.6516C0.00634766 21.6581 0.00634766 21.6645 0.00634766 21.6774C0.00634766 21.6839 0.00634766 21.6839 0.00634766 21.6903C0.00634766 21.7162 0.00634766 21.7484 0.00634766 21.7742C0.00634766 21.7871 0.00634766 21.8 0.00634766 21.8194V21.8258C0.00634766 21.8452 0.00634766 21.8581 0.00634766 21.8774V21.8839C0.00634766 21.9355 0.00634766 21.9936 0.00634766 22.0452C0.00634766 22.0645 0.00634766 22.0903 0.00634766 22.1097V22.1161V22.1226C0.00634766 22.1291 0.00634766 22.1355 0.00634766 22.1484C0.00634766 22.1613 0.00634766 22.1678 0.00634766 22.1807C0.00634766 22.1871 0.00634766 22.2 0.00634766 22.2065V22.2129C0.00634766 22.2258 0.00634766 22.2323 0.00634766 22.2452C0.00634766 22.2581 0.00634766 22.2645 0.00634766 22.2774C0.0127993 22.3162 0.0127993 22.3549 0.00634766 22.3936C0.00634766 22.4 0.00634766 22.4 0.00634766 22.4065V22.4129V22.4194C0.00634766 22.4323 0.0127993 22.4452 0.0127993 22.4516C0.0127993 22.471 0.0127993 22.4903 0.00634766 22.5162C0.00634766 22.5226 0.00634766 22.5291 0.00634766 22.5355C0.00634766 22.5678 0.00634766 22.5936 0.00634766 22.6258V22.6323C0.0127993 22.6581 0.0127993 22.6839 0.0127993 22.7097C0.0127993 22.7162 0.0127993 22.7226 0.0127993 22.7291C0.0127993 22.7355 0.0127993 22.742 0.0127993 22.7484C0.0192509 22.7678 0.0192509 22.7936 0.0192509 22.8065C0.0192509 22.8258 0.0192509 22.8452 0.0127993 22.8645C0.0127993 22.9032 0.0127993 22.9484 0.0127993 22.9871C0.0127993 23.0129 0.0127993 23.0452 0.0127993 23.071C0.0127993 23.0774 0.0127993 23.0968 0.0127993 23.1032C0.0127993 23.1226 0.0127993 23.1355 0.0127993 23.1549C0.722477 27.0774 4.35473 30.0129 8.76764 30.0129C13.6709 30.0129 17.6515 26.3162 17.6515 21.7549C17.6386 19.3162 16.4967 17.1162 14.6838 15.6065Z" fill="#FB2B3A"/>
<path d="M9.4257 2.47955e-05V4.98067C9.4257 5.83873 8.89022 6.62583 8.04506 6.98712L6.19344 7.78067C5.15473 8.22583 4.52248 9.23228 4.6128 10.2968L4.72248 11.5807C4.85151 13.0452 4.23861 14.4968 3.03215 15.4452C1.46441 16.671 0.367638 18.3936 0.00634766 20.3484C0.00634766 20.3613 0.00634766 20.3742 0.00634766 20.3936C0.00634766 20.3936 0.00634766 20.3936 0.00634766 20.4C0.00634766 20.4065 0.00634766 20.4129 0.00634766 20.4129C0.00634766 20.4258 0.00634766 20.4387 0.00634766 20.4581C0.00634766 20.4645 0.00634766 20.471 0.00634766 20.4774C0.00634766 20.4903 0.00634766 20.5097 0.00634766 20.5226C0.00634766 20.5226 0.00634766 20.5226 0.00634766 20.5291V20.5355C0.00634766 20.542 0.00634766 20.5484 0.00634766 20.5549C0.00634766 20.5807 0.00634766 20.6 0.00634766 20.6258C0.00634766 20.6323 0.00634766 20.6452 0.00634766 20.6516C0.00634766 20.6581 0.00634766 20.6581 0.00634766 20.6645C0.00634766 20.6839 0.00634766 20.6968 0.00634766 20.7162C0.00634766 20.7355 0.00634766 20.7613 0.00634766 20.7807C0.00634766 20.8 0.00634766 20.8129 0.00634766 20.8323C0.00634766 20.8387 0.00634766 20.8387 0.00634766 20.8452C0.00634766 20.8516 0.00634766 20.8581 0.00634766 20.8581C0.00634766 20.8774 0.00634766 20.8968 0.00634766 20.9162C0.00634766 20.9291 0.00634766 20.942 0.00634766 20.9484C0.00634766 20.9678 0.00634766 20.9936 0.00634766 21.0129C0.00634766 21.0194 0.00634766 21.0258 0.00634766 21.0258C0.00634766 21.0387 0.00634766 21.0581 0.00634766 21.071C0.00634766 21.0903 0.00634766 21.1033 0.00634766 21.1226C0.00634766 21.1291 0.00634766 21.1355 0.00634766 21.142C0.00634766 21.1549 0.00634766 21.1613 0.00634766 21.1742C0.00634766 21.1871 0.00634766 21.2065 0.00634766 21.2194C0.00634766 21.2323 0.00634766 21.2452 0.00634766 21.2581C0.00634766 21.2774 0.00634766 21.2968 0.00634766 21.3097V21.3162C0.00634766 21.3226 0.00634766 21.3226 0.00634766 21.3291C0.00634766 21.3936 0.0127993 21.4645 0.00634766 21.5291C0.00634766 21.542 0.00634766 21.5549 0.00634766 21.5742C0.00634766 21.5807 0.00634766 21.5807 0.00634766 21.5871C0.00634766 21.5871 0.00634766 21.5871 0.00634766 21.5936C0.00634766 21.6129 0.00634766 21.6323 0.00634766 21.6516C0.00634766 21.6581 0.00634766 21.6645 0.00634766 21.6774C0.00634766 21.6839 0.00634766 21.6839 0.00634766 21.6903C0.00634766 21.7162 0.00634766 21.7484 0.00634766 21.7742C0.00634766 21.7871 0.00634766 21.8 0.00634766 21.8194V21.8258C0.00634766 21.8452 0.00634766 21.8645 0.00634766 21.8774C0.00634766 21.8774 0.00634766 21.8774 0.00634766 21.8839C0.00634766 21.8903 0.00634766 21.8968 0.00634766 21.9032L8.76118 30.0065C9.53538 30.0065 10.2838 29.9162 10.9999 29.742C7.2386 28.8387 4.46441 25.7291 4.37409 21.9355C4.30957 19.3291 5.55473 16.9871 7.52893 15.4323C8.73538 14.4839 9.34183 13.0323 9.21925 11.5678L9.10957 10.2839C9.01925 9.21938 9.65151 8.21938 10.6902 7.76777L12.5418 6.97422C13.3805 6.61293 13.9225 5.83228 13.9225 4.96777V4.81293L9.4257 2.47955e-05Z" fill="#E41F2D"/>
<path d="M19.9548 27.5678L16.9484 18.342C16.9097 18.2323 16.8581 18.1291 16.7871 18.0387C16.6903 17.9162 16.5613 17.8194 16.4194 17.7549L8.57419 14.342C8.4 14.2645 8.20645 14.2452 8.02581 14.2774C7.88387 14.3033 7.74839 14.3549 7.63226 14.4387L0.412903 19.5097C0.154839 19.6904 0 19.9871 0 20.3033V20.3226C0 20.3484 0 20.3678 0 20.3936C0 20.3936 0 20.3936 0 20.4C0 20.4065 0 20.4065 0 20.4129C0 20.4194 0 20.4258 0 20.4387C0 20.4516 0 20.4645 0 20.4774C0 20.4968 0 20.5097 0 20.5291V20.5355V20.542C0 20.5484 0 20.5549 0 20.5613C0 20.5871 0 20.6065 0 20.6323C0 20.6452 0 20.6581 0 20.6774V20.6839C0 20.6968 0 20.7097 0 20.7226V20.7291C0 20.7549 0 20.7742 0 20.8C0 20.8129 0 20.8258 0 20.8387V20.8904C0 20.9033 0 20.9162 0 20.9291V20.942C0 20.9549 0 20.9678 0 20.9807C0 20.9936 0 21.0065 0 21.0194C0 21.0258 0 21.0323 0 21.0323C0 21.0452 0 21.0581 0 21.071V21.1097C0 21.1162 0 21.1226 0 21.1355V21.1678C0 21.1742 0 21.1742 0 21.1807C0 21.1871 0 21.1936 0 21.2065V21.2129C0 21.2194 0 21.2258 0 21.2387C0 21.2452 0 21.2516 0 21.2645V21.3097C0 21.3162 0 21.3226 0 21.3355V21.3549V21.3613C0 21.4258 0.00645161 21.4904 0 21.5484C0 21.5549 0 21.5613 0 21.5678C0 21.5742 0 21.5742 0 21.5807C0 21.5871 0 21.6 0 21.6065C0 21.6129 0 21.6129 0 21.6194C0 21.6194 0 21.6194 0 21.6258C0 21.6452 0 21.6645 0 21.6839C0 21.6904 0 21.6968 0 21.7097C0 21.7097 0 21.7097 0 21.7162C0 21.7291 0 21.742 0 21.7613V21.8129C0 21.8258 0 21.8323 0 21.8452C0 21.8516 0 21.8645 0 21.871V21.8774C0 21.8904 0 21.9033 0 21.9162V21.9226C0 21.9678 0 22.0065 0 22.0516V22.0645C0 22.0968 0 22.1355 0 22.1678V22.1936C0 22.2 0 22.2065 0 22.2129C0 22.2194 0 22.2194 0 22.2258V22.3226C0.00645161 22.3549 0.00645161 22.3871 0 22.4194V22.4581C0 22.4645 0 22.4774 0 22.4839C0 22.4968 0 22.5097 0 22.5226V22.671C0 22.6904 0 22.7097 0 22.7355C0 22.742 0 22.742 0 22.742V22.7742C0 22.7936 0.00645161 22.8129 0.00645161 22.8323C0.00645161 22.8516 0.00645161 22.8645 0 22.8839V28.1936C0 28.6 0.251613 28.9613 0.625806 29.0968L7.67742 31.742C7.71613 31.7549 7.76129 31.7678 7.8 31.7807C7.87097 31.8 7.94194 31.8065 8.01935 31.8065C8.10323 31.8065 8.1871 31.7936 8.27097 31.7742L19.2839 28.8065C19.5419 28.7355 19.7548 28.5678 19.8839 28.3355C20.0129 28.0968 20.0387 27.8258 19.9548 27.5678Z" fill="#48484B"/>
<path d="M16.4131 17.7613L8.56792 14.3484C8.39372 14.271 8.20018 14.2516 8.01953 14.2839L9.80663 23.5742L16.7873 18.0516C16.6905 17.9226 16.5615 17.8258 16.4131 17.7613Z" fill="#403F44"/>
<path d="M19.955 27.5678L16.9486 18.342C16.9099 18.2323 16.8583 18.1291 16.7873 18.0387L9.80664 23.5678L7.80664 31.7807C7.87761 31.8 7.94858 31.8065 8.026 31.8065C8.10987 31.8065 8.19374 31.7936 8.27761 31.7742L19.2905 28.8065C19.5486 28.7355 19.7615 28.5678 19.8905 28.3355C20.0131 28.0968 20.0389 27.8258 19.955 27.5678Z" fill="#313133"/>
<path d="M3.17408 21.1033C2.80634 21.1033 2.52892 21.4516 2.61924 21.8065C2.92892 23.0194 4.03215 23.9097 5.34182 23.9097C6.6515 23.9097 7.74828 23.0129 8.06441 21.8065C8.15473 21.4516 7.87731 21.1033 7.50957 21.1033H3.17408Z" fill="white"/>
<path d="M4.56763 21.8065C4.47731 21.4516 4.75473 21.1033 5.12247 21.1033H3.17408C2.80634 21.1033 2.52892 21.4516 2.61924 21.8065C2.92892 23.0194 4.03215 23.9097 5.34182 23.9097C5.68376 23.9097 6.01279 23.8452 6.31602 23.7355C5.45795 23.4194 4.79344 22.6968 4.56763 21.8065Z" fill="#FBF0FF"/>
<path d="M10.5032 21.1033C10.1354 21.1033 9.85802 21.4516 9.94834 21.8065C10.258 23.0194 11.3612 23.9097 12.6709 23.9097C13.9806 23.9097 15.0774 23.0129 15.3935 21.8065C15.4838 21.4516 15.2064 21.1033 14.8387 21.1033H10.5032Z" fill="white"/>
<path d="M11.9806 21.8065C11.8903 21.4516 12.1677 21.1033 12.5354 21.1033H10.5032C10.1354 21.1033 9.85802 21.4516 9.94834 21.8065C10.258 23.0194 11.3612 23.9097 12.6709 23.9097C13.0322 23.9097 13.3677 23.8387 13.6838 23.7162C12.8516 23.3936 12.2064 22.6839 11.9806 21.8065Z" fill="#FBF0FF"/>
</g>
<defs>
<clipPath id="clip0">
<rect width="20" height="31.8065" fill="white"/>
</clipPath>
</defs>
</svg>
