<svg width="76" height="77" viewBox="0 0 76 77" fill="none" xmlns="http://www.w3.org/2000/svg">
<path d="M58.7241 42.1936V71.6323C58.7241 73.5102 57.7802 75.2199 56.1997 76.2018C54.6192 77.1852 52.6885 77.2647 51.0352 76.4138L45.801 73.7209L38.3807 69.9048C38.3006 69.8627 38.213 69.8356 38.1254 69.8236C37.9547 69.7965 37.7767 69.8251 37.6194 69.9048L30.0819 73.7824L24.9648 76.4137C24.2035 76.8045 23.3842 77.0001 22.5665 77.0001C21.6077 77.0001 20.6536 76.7324 19.8002 76.2016C18.2196 75.2197 17.2759 73.5102 17.2759 71.6322V42.1936C17.2759 40.9487 18.2732 39.9382 19.502 39.9382H45.801C51.8262 39.9382 56.4981 39.9382 56.4981 39.9382C57.7282 39.9382 58.7241 40.9487 58.7241 42.1936Z" fill="#AAB5C6"/>
<path d="M58.7239 42.1936V71.6323C58.7239 73.5102 57.78 75.2199 56.1996 76.2018C54.619 77.1852 52.6883 77.2647 51.035 76.4138L45.8008 73.7209L38.3806 69.9048C38.3004 69.8627 38.2128 69.8356 38.1252 69.8236V39.9382H45.8008C51.826 39.9382 56.4979 39.9382 56.4979 39.9382C57.728 39.9382 58.7239 40.9487 58.7239 42.1936Z" fill="#909FB4"/>
<path d="M45.8009 39.9382V73.7208L38.3806 69.9046C38.3005 69.8625 38.2129 69.8354 38.1253 69.8234C37.9546 69.7963 37.7766 69.8249 37.6193 69.9046L30.0818 73.7823V39.9382H45.8009Z" fill="#FF2121"/>
<path d="M45.8008 39.9382V73.7208L38.3806 69.9046C38.3004 69.8625 38.2128 69.8354 38.1252 69.8234V39.9382H45.8008Z" fill="#CF0404"/>
<path d="M64.0845 26.4284C64.0845 40.959 52.4525 52.7877 38.1254 52.8569H38.0007C23.6173 52.8569 11.9155 41.0011 11.9155 26.4284C11.9155 11.8557 23.6173 0 38.0007 0H38.1254C52.4525 0.0691797 64.0845 11.8979 64.0845 26.4284Z" fill="#E3EEFF"/>
<path d="M64.0845 26.4284C64.0845 40.959 52.4525 52.7877 38.1255 52.8569V0C52.4525 0.0691797 64.0845 11.8979 64.0845 26.4284Z" fill="#D7E2F2"/>
<path d="M55.7871 26.4284C55.7871 36.322 47.8756 44.3796 38.1254 44.4473C38.0839 44.4488 38.0423 44.4488 38.0008 44.4488C28.1926 44.4488 20.2129 36.3641 20.2129 26.4284C20.2129 16.4912 28.1926 8.40649 38.0008 8.40649C38.0423 8.40649 38.0839 8.40649 38.1254 8.408C47.8757 8.47567 55.7871 16.5333 55.7871 26.4284Z" fill="#AAB5C6"/>
<path d="M55.7869 26.4285C55.7869 36.3221 47.8754 44.3797 38.1252 44.4474V8.40808C47.8755 8.47576 55.7869 16.5334 55.7869 26.4285Z" fill="#909FB4"/>
</svg>
